<svg id="圖層_1" data-name="圖層 1" xmlns="http://www.w3.org/2000/svg" viewBox="0 0 427.04 426.33"><title>2305-官網用</title><path d="M63,248.69l.94,19.59-26.53,1.28-.94-19.32,3.18-.16.76,15.75,8.13-.4-.7-14.52,3.18-.16.7,14.53,8.87-.43-.77-16Z" transform="translate(-36.47 -36.76)"/><path d="M38.86,218.76l.44-4,25.34,12.56-.42,3.79-27.47,6.71.44-4,23.34-5v-.07Z" transform="translate(-36.47 -36.76)"/><path d="M72.89,189.78l-5.25,18.89-25.59-7.12,5.18-18.64,3.07.85-4.23,15.18,7.84,2.18,3.9-14,3.07.85L57,202l8.55,2.38,4.3-15.44Z" transform="translate(-36.47 -36.76)"/><path d="M78,176.81l-1.52,3.25L52.46,168.8l5.21-11.13c1.85-3.95,5.08-7.26,10.17-4.88a6.57,6.57,0,0,1,4.2,6.05c1.21-1.11,2.45-2.2,5.87-.76l4.45,1.83c1.35.6,1.94.67,3-.07l.53.25-1.86,4a32.47,32.47,0,0,1-6.3-2.26c-2-.92-4.48-1.6-6.3,2.28L67.72,172Zm-13.1-6.13,3.53-7.54c1.12-2.38,1.69-5.18-1.86-6.84-3.72-1.74-5.29.83-6,2.44l-3.79,8.11Z" transform="translate(-36.47 -36.76)"/><path d="M96.2,144.08l-2,3-8.86-6-18.77-.58L68.9,137l14.85.84-6.31-13.47,2.36-3.49,7.54,17.19Z" transform="translate(-36.47 -36.76)"/><path d="M101.06,97l8.06-7.14c5.19-4.58,11.86-3.46,16.93,2.28,4,4.46,7.1,12,.56,17.73l-8,7Zm18.25,15.22,5.21-4.6c3.49-3.09,3.34-7.84-1.1-12.86s-9-5.51-12.62-2.28l-5,4.44Z" transform="translate(-36.47 -36.76)"/><path d="M141.32,88.65l1.8,8-3.12,2-5.82-27.77,3.43-2.18L160,85.94,156.67,88l-6.36-5.11Zm6.19-7.71-9.58-7.76-.07,0,2.69,12.15Z" transform="translate(-36.47 -36.76)"/><path d="M174.9,79l-3.27,1.47-4.4-9.74L151.55,60.38l3.81-1.72,12.2,8.49,1.7-14.77,3.84-1.73-2.6,18.59Z" transform="translate(-36.47 -36.76)"/><path d="M212.71,67l-3.51.74-5.54-26,3.52-.75Z" transform="translate(-36.47 -36.76)"/><path d="M238.77,44.69c-.53-4.08-4-5.08-7-4.83-2.25.2-6,1.15-5.65,5.17.19,2.24,1.84,2.85,3.42,3.08l7.71,1.09c3.49.52,6.25,2.36,6.61,6.57.53,6.26-5.14,8.49-9.68,8.88-4.9.42-6.94-.89-8.22-1.86a8.18,8.18,0,0,1-3.26-6.48L226,56c.4,4.79,4.43,5.86,7.82,5.57,2.58-.22,6.88-1.25,6.55-5.05-.23-2.76-1.6-3.54-6-4.2l-5.52-.79c-1.77-.26-5.78-1.14-6.17-5.75-.36-4.13,2-8.41,8.4-9,9.26-.79,10.65,4.66,11,7.56Z" transform="translate(-36.47 -36.76)"/><path d="M284.56,52,296,54l-2.43,14-2.29-.39-.25-3.54a10.88,10.88,0,0,1-9.35,2.59c-4.48-.78-6.39-2.8-7.51-4.35-3.35-4.48-2.68-9-2.2-11.76,1.1-6.38,6.21-12.89,14.74-11.41,4.89.85,9.84,4.56,9.58,10.56l-3.42-.59c-.34-4.76-4-6.37-6.88-6.87-4.71-.81-9.22,2.27-10.41,9.13-.92,5.32-.12,11.09,6.84,12.3a8.4,8.4,0,0,0,5.65-.75c2.61-1.42,3.6-3.66,4.09-6.46L284,55.06Z" transform="translate(-36.47 -36.76)"/><path d="M314.46,75.45c-9.3-3.43-9.29-12.23-7.3-17.61s7.69-12.07,17-8.63,9.29,12.23,7.31,17.61S323.76,78.89,314.46,75.45Zm8.59-23.26c-5.42-2-10.26,1.07-12.42,6.94s-.48,11.34,4.93,13.34S325.82,71.4,328,65.53,328.46,54.19,323.05,52.19Z" transform="translate(-36.47 -36.76)"/><path d="M344.78,89.9c-8.53-5.06-6.93-13.7-4-18.63s9.75-10.48,18.27-5.42,6.93,13.7,4,18.63S353.3,95,344.78,89.9Zm12.64-21.31c-5-3-10.27-.81-13.46,4.57s-2.52,11.06,2.44,14,10.27.8,13.46-4.57S362.38,71.53,357.42,68.59Z" transform="translate(-36.47 -36.76)"/><path d="M381.25,81.55l8.16,7c5.24,4.52,5,11.27,0,17.08-3.88,4.52-10.87,8.66-17.49,3l-8-6.93ZM368.64,101.7l5.27,4.54c3.53,3,8.22,2.24,12.59-2.84s4.24-9.63.54-12.81L382,86.22Z" transform="translate(-36.47 -36.76)"/><path d="M420,120.75l6.1,8.87c3.92,5.7,2,12.18-4.31,16.52-4.91,3.38-12.72,5.61-17.67-1.59l-6-8.75ZM402.66,137l3.94,5.73c2.64,3.84,7.38,4.26,12.9.47s6.55-8.23,3.78-12.26l-3.79-5.52Z" transform="translate(-36.47 -36.76)"/><path d="M423.4,161.74l-8.18.81-1.59-3.34,28.29-2.39,1.75,3.68-19.86,20.1-1.69-3.54,5.86-5.7Zm6.89,7.08,8.88-8.56,0-.07-12.39,1.18Z" transform="translate(-36.47 -36.76)"/><path d="M428.87,196.24l-1.06-3.43L438,189.64l12.19-14.28,1.24,4-9.94,11.06,14.46,3.5,1.25,4-18.14-4.87Z" transform="translate(-36.47 -36.76)"/><path d="M433.3,214.21l-.77-3.77,3.84-.79.78,3.77Z" transform="translate(-36.47 -36.76)"/><path d="M437,249.81l-1.1-19.58,26.52-1.49,1.09,19.32-3.18.18-.88-15.74-8.13.46.81,14.52-3.17.18-.82-14.52-8.86.5.89,16Z" transform="translate(-36.47 -36.76)"/><path d="M461.38,279.57l-.41,4-25.44-12.36.39-3.79,27.42-6.93-.41,4-23.3,5.23v.07Z" transform="translate(-36.47 -36.76)"/><path d="M427.58,308.82l5.1-18.93,25.65,6.91-5,18.68-3.07-.82,4.1-15.22-7.86-2.12-3.78,14-3.07-.83,3.78-14-8.57-2.31-4.17,15.47Z" transform="translate(-36.47 -36.76)"/><path d="M422.53,321.82l1.5-3.26,24.15,11.07-5.13,11.17c-1.82,4-5,7.3-10.13,5a6.56,6.56,0,0,1-4.24-6c-1.2,1.12-2.44,2.22-5.87.81l-4.46-1.8c-1.36-.59-1.94-.65-3,.1l-.54-.25,1.84-4a33.17,33.17,0,0,1,6.32,2.2c2,.91,4.49,1.58,6.28-2.33l3.62-7.9Zm13.15,6-3.47,7.57c-1.09,2.39-1.65,5.19,1.92,6.82,3.73,1.71,5.28-.87,6-2.49l3.73-8.13Z" transform="translate(-36.47 -36.76)"/><path d="M404.64,354.69l2-3,8.91,5.91,18.77.43L432,361.53l-14.86-.72,6.42,13.42-2.33,3.51-7.68-17.14Z" transform="translate(-36.47 -36.76)"/><path d="M400.17,401.81l-8,7.19c-5.15,4.62-11.83,3.56-16.94-2.14-4-4.43-7.2-11.89-.7-17.72l7.9-7.1ZM381.8,386.73l-5.18,4.64c-3.46,3.12-3.27,7.87,1.2,12.85s9,5.44,12.64,2.18l5-4.48Z" transform="translate(-36.47 -36.76)"/><path d="M360,410.48l-1.87-8,3.11-2,6,27.73-3.42,2.21-22.51-17.08,3.3-2.13,6.4,5.07Zm-6.13,7.75,9.64,7.69.06,0-2.78-12.13Z" transform="translate(-36.47 -36.76)"/><path d="M326.46,420.4l3.26-1.5,4.48,9.71L350,438.83l-3.8,1.75-12.26-8.4L332.31,447l-3.83,1.77,2.46-18.61Z" transform="translate(-36.47 -36.76)"/><path d="M288.75,432.7l3.5-.77L298,457.87l-3.5.78Z" transform="translate(-36.47 -36.76)"/><path d="M262.88,455.21c.56,4.07,4.07,5.05,7.05,4.77,2.25-.21,6-1.19,5.61-5.2-.21-2.25-1.86-2.84-3.44-3.07l-7.71-1c-3.5-.49-6.27-2.32-6.67-6.52-.58-6.26,5.08-8.53,9.61-8.95,4.9-.46,6.95.83,8.23,1.79a8.17,8.17,0,0,1,3.31,6.46l-3.35.31c-.44-4.79-4.48-5.82-7.87-5.51-2.58.24-6.86,1.31-6.51,5.1.26,2.77,1.63,3.53,6.07,4.16l5.54.74c1.76.25,5.78,1.1,6.21,5.7.39,4.13-1.93,8.43-8.33,9-9.25.86-10.69-4.58-11.1-7.47Z" transform="translate(-36.47 -36.76)"/><path d="M217,448.23l-11.5-1.9,2.32-14,2.3.38.28,3.53a10.82,10.82,0,0,1,9.32-2.66c4.49.74,6.41,2.75,7.54,4.28,3.39,4.46,2.76,9,2.3,11.74-1.05,6.39-6.11,12.94-14.65,11.53-4.89-.81-9.87-4.48-9.67-10.48l3.43.57c.38,4.74,4.06,6.33,6.94,6.8,4.71.78,9.2-2.34,10.33-9.2.88-5.33,0-11.1-6.94-12.25a8.46,8.46,0,0,0-5.64.8c-2.6,1.44-3.57,3.68-4,6.49l8.17,1.35Z" transform="translate(-36.47 -36.76)"/><path d="M187,425.06c9.32,3.36,9.38,12.15,7.44,17.54s-7.6,12.13-16.93,8.77-9.38-12.15-7.44-17.55S177.62,421.7,187,425.06Zm-8.41,23.32c5.43,1.95,10.25-1.15,12.37-7s.39-11.34-5-13.3-10.25,1.15-12.37,7S173.11,446.42,178.54,448.38Z" transform="translate(-36.47 -36.76)"/><path d="M156.51,410.85c8.57,5,7,13.65,4.15,18.6S151,440,142.42,435s-7-13.64-4.14-18.6S147.94,405.85,156.51,410.85ZM144,432.27c5,2.9,10.28.72,13.43-4.68s2.43-11.09-2.55-14-10.29-.73-13.43,4.67S139,429.36,144,432.27Z" transform="translate(-36.47 -36.76)"/><path d="M120.12,419.5l-8.22-7c-5.28-4.47-5.13-11.23-.18-17.07,3.85-4.55,10.8-8.74,17.46-3.1l8.11,6.86Zm12.44-20.25-5.3-4.49c-3.56-3-8.24-2.18-12.57,2.93s-4.16,9.66-.44,12.82l5.11,4.33Z" transform="translate(-36.47 -36.76)"/><path d="M81,380.59l-6.17-8.82c-4-5.67-2.1-12.17,4.18-16.56,4.88-3.41,12.67-5.7,17.67,1.45l6.09,8.7Zm17.2-16.41-4-5.7c-2.67-3.82-7.41-4.2-12.9-.36s-6.49,8.28-3.69,12.28l3.84,5.49Z" transform="translate(-36.47 -36.76)"/><path d="M77.32,339.64l8.16-.88,1.62,3.33L58.84,344.7,57.06,341l19.7-20.25,1.71,3.53-5.81,5.74Zm-7-7-8.8,8.63,0,.07L74,340Z" transform="translate(-36.47 -36.76)"/><path d="M71.56,305.18l1.09,3.42-10.18,3.26L50.4,326.24l-1.28-4L59,311.11l-14.48-3.37-1.28-4,18.17,4.72Z" transform="translate(-36.47 -36.76)"/><path d="M67,287.25l.8,3.77-3.84.82-.8-3.77Z" transform="translate(-36.47 -36.76)"/></svg>