<svg id="圖層_1" data-name="圖層 1" xmlns="http://www.w3.org/2000/svg" viewBox="0 0 421.31 422.15"><defs><style>.cls-1{fill:#ee3f4d;}</style></defs><title>良辰吉市LOGO3</title><path class="cls-1" d="M413.87,211.25a5.39,5.39,0,0,0,5.4-5.39V203.1a5.4,5.4,0,0,0-5.4-5.4h-30v-6.93a4.32,4.32,0,0,0-4.32-4.32H359.48a4.33,4.33,0,0,0-4.32,4.32v6.93H325.52a5.4,5.4,0,0,0-5.4,5.4v2.76a5.39,5.39,0,0,0,5.4,5.39h29.64v6.07H332.42a5.4,5.4,0,0,0-5.4,5.4v2.45a5.37,5.37,0,0,0,3.2,4.92h-5a4.33,4.33,0,0,0-4.32,4.32v35.94a4.33,4.33,0,0,0,4.32,4.32h88.92a4.33,4.33,0,0,0,4.32-4.32V241a4.32,4.32,0,0,0-4.32-4.31H344v-2.23a4.3,4.3,0,0,0-2.38-3.84H407a5.4,5.4,0,0,0,5.4-5.4v-2.45a5.4,5.4,0,0,0-5.4-5.4H383.86v-6.07Zm-18.39,38.64v11.52H344V249.89Z" transform="translate(-38.47 -40)"/><path class="cls-1" d="M313.4,312.2a5.4,5.4,0,0,0,5.4-5.4V304a5.4,5.4,0,0,0-5.4-5.4H283.58v-6.92a4.32,4.32,0,0,0-4.32-4.32H259.2a4.31,4.31,0,0,0-4.32,4.32v6.92H225.05a5.4,5.4,0,0,0-5.4,5.4v2.76a5.4,5.4,0,0,0,5.4,5.4H255.3v12H243.49v-1.64a4.32,4.32,0,0,0-4.31-4.32h-14.4a4.33,4.33,0,0,0-4.32,4.32v48.71a4.32,4.32,0,0,0,4.32,4.32h14.4a4.31,4.31,0,0,0,4.31-4.32v-30H255.3v30a4.32,4.32,0,0,0,4.32,4.32h19.22a4.31,4.31,0,0,0,4.31-4.32v-30H295V353.8h-1.43a4.31,4.31,0,0,0-4.32,4.31v13.18a4.31,4.31,0,0,0,4.32,4.32h20.15a4.31,4.31,0,0,0,4.31-4.32V328.54a4.31,4.31,0,0,0-4.31-4.32H283.15v-12Z" transform="translate(-38.47 -40)"/><path class="cls-1" d="M212.94,206a5.39,5.39,0,0,0,5.4-5.39v-2.76a5.4,5.4,0,0,0-5.4-5.4H143.81v-1.64a4.32,4.32,0,0,0-4.31-4.32H125.1a4.33,4.33,0,0,0-4.32,4.32v79.58a4.33,4.33,0,0,0,4.32,4.32h14.4a4.32,4.32,0,0,0,4.31-4.32V244.22h6.07v26.13a4.32,4.32,0,0,0,4.32,4.32H172a4.33,4.33,0,0,0,4.32-4.32V257.17a4.33,4.33,0,0,0-4.32-4.32h-9.58v-8.63H170l35.25,29.21a5.78,5.78,0,0,0,3.57,1.24h3.77a5.78,5.78,0,0,0,5.78-5.78v-2.56a5.78,5.78,0,0,0-2.21-4.54l-5.57-4.37h4.26a3.53,3.53,0,0,0,3.52-3.52v-.55a3.52,3.52,0,0,0-3.52-3.51H200.9l-6.32-5a5.42,5.42,0,0,0-1.11-.66h19.47a5.4,5.4,0,0,0,5.4-5.4v-2.76a5.4,5.4,0,0,0-5.4-5.4H143.81V224.6h63.06a5.4,5.4,0,0,0,5.4-5.4v-1.77a5.4,5.4,0,0,0-5.4-5.4H143.81V206Z" transform="translate(-38.47 -40)"/><path class="cls-1" d="M313.69,139.05a4.32,4.32,0,0,0,4.31-4.32V97.15a4.31,4.31,0,0,0-4.31-4.32H284.07V85.6a4.33,4.33,0,0,0-4.32-4.32H259.69a4.32,4.32,0,0,0-4.32,4.32v7.23H243.48v-.71a4.31,4.31,0,0,0-4.32-4.32H224.77a4.31,4.31,0,0,0-4.32,4.32v73.06a4.31,4.31,0,0,0,4.32,4.31h36.56a4.32,4.32,0,0,0,4.32-4.31V152a4.32,4.32,0,0,0-4.32-4.32H243.48v-8.63h16.67l36.21,29.21a5.76,5.76,0,0,0,3.56,1.23h12.31a5.77,5.77,0,0,0,5.77-5.77v-2.56a5.77,5.77,0,0,0-2.2-4.54l-5.58-4.38h4.27a3.51,3.51,0,0,0,3.51-3.51v-.55a3.52,3.52,0,0,0-3.51-3.52H300.56s-7-5.43-7.42-5.61Zm-18.72-33v6.07H243.48v-6.07Zm-51.49,13.65H295v6.06H243.48Z" transform="translate(-38.47 -40)"/><path class="cls-1" d="M444.08,192.58,307.21,55.71a53.76,53.76,0,0,0-76,0L94.37,192.58a53.78,53.78,0,0,0,0,76L231.25,405.41a53.76,53.76,0,0,0,76,0L444.08,268.54A53.76,53.76,0,0,0,444.08,192.58ZM238,62.43a44.26,44.26,0,0,1,62.53,0l66,66-97.3,97.3-97.3-97.3ZM101.09,199.3l66-66,97.3,97.3-97.3,97.3-66-66A44.27,44.27,0,0,1,101.09,199.3Zm199.4,199.39a44.26,44.26,0,0,1-62.53,0l-66-66,97.3-97.3,97.3,97.3ZM437.36,261.82l-66,66L274,230.56l97.3-97.3,66,66A44.25,44.25,0,0,1,437.36,261.82Z" transform="translate(-38.47 -40)"/><path class="cls-1" d="M55,274a8.72,8.72,0,0,1,1.87-1.42,8.3,8.3,0,0,1,2.1-.86,8.83,8.83,0,0,1,4.45,0,9.1,9.1,0,0,1,2.1.86,8.48,8.48,0,0,1,3.29,3.29,9.1,9.1,0,0,1,.86,2.1A9.25,9.25,0,0,1,70,280.2a8.78,8.78,0,0,1-.29,2.22,8.92,8.92,0,0,1-.86,2.11,8.78,8.78,0,0,1-3.29,3.3,9,9,0,0,1-2.1.84,8.78,8.78,0,0,1-2.22.29,9.11,9.11,0,0,1-2.21-.29,8.68,8.68,0,0,1-2.1-.86A8.52,8.52,0,0,1,55,286.38a8.78,8.78,0,0,1-2.28-4,8.79,8.79,0,0,1,.85-6.54A9,9,0,0,1,55,274Zm1,1a7.2,7.2,0,0,0-1.63,2.45,7.43,7.43,0,0,0-.54,2.78A7.42,7.42,0,0,0,56,285.44a7.25,7.25,0,0,0,1.58,1.2,7.48,7.48,0,0,0,1.77.72,8,8,0,0,0,1.88.25,7.46,7.46,0,0,0,1.88-.24,7.29,7.29,0,0,0,3.36-1.93A7.08,7.08,0,0,0,68.09,283a7.58,7.58,0,0,0,0-5.57A7.17,7.17,0,0,0,66.47,275a7.25,7.25,0,0,0-1.58-1.2A7.1,7.1,0,0,0,63.1,273a7.44,7.44,0,0,0-3.75,0A7.53,7.53,0,0,0,56,275Z" transform="translate(-38.47 -40)"/><path class="cls-1" d="M71.23,290.21a8.78,8.78,0,0,1,4-2.28,9.26,9.26,0,0,1,2.22-.29,8.37,8.37,0,0,1,2.23.29,8.89,8.89,0,0,1,2.11.85A8.73,8.73,0,0,1,85,292.07a8.59,8.59,0,0,1,1.14,4.32,8.3,8.3,0,0,1-.29,2.22,9,9,0,0,1-.86,2.12A8.66,8.66,0,0,1,81.73,304a9.07,9.07,0,0,1-2.1.85,8.77,8.77,0,0,1-2.22.28,9.18,9.18,0,0,1-2.21-.29,8.68,8.68,0,0,1-2.1-.86,8.8,8.8,0,0,1-1.87-1.42,9.05,9.05,0,0,1-1.42-1.87,8.68,8.68,0,0,1-.86-2.1,8.74,8.74,0,0,1,.85-6.53A8.52,8.52,0,0,1,71.23,290.21Zm1,1a7.06,7.06,0,0,0-1.63,2.45,7.45,7.45,0,0,0,0,5.57,7.2,7.2,0,0,0,1.63,2.45,7.55,7.55,0,0,0,1.58,1.21,7,7,0,0,0,1.78.71,7.3,7.3,0,0,0,3.75,0,7.55,7.55,0,0,0,1.78-.72,7.3,7.3,0,0,0,1.58-1.21,7.14,7.14,0,0,0,1.62-2.44,7.61,7.61,0,0,0,0-5.58,7.14,7.14,0,0,0-1.62-2.44A7,7,0,0,0,81.08,290a7.3,7.3,0,0,0-3.66-1,7.41,7.41,0,0,0-1.88.25,7.28,7.28,0,0,0-3.35,1.92Z" transform="translate(-38.47 -40)"/><path class="cls-1" d="M53.33,266.8l.36.37a.42.42,0,0,0,.57,0l1.34-1.34.17-.18a.66.66,0,0,0,.13-.53,5.8,5.8,0,0,0-.12-.73,8.19,8.19,0,0,0-.23-.81c-.09-.28-.17-.51-.24-.7a8.32,8.32,0,0,0-1.9-2.87,8.18,8.18,0,0,0-1.87-1.42,8.42,8.42,0,0,0-2.1-.85,8.77,8.77,0,0,0-2.22-.28,9.11,9.11,0,0,0-2.21.29,8.68,8.68,0,0,0-2.1.86A8.5,8.5,0,0,0,41.05,260a8.71,8.71,0,0,0-1.43,1.86,9,9,0,0,0-.86,2.1,8.65,8.65,0,0,0-.29,2.21,9.11,9.11,0,0,0,.29,2.21,8.35,8.35,0,0,0,.85,2.09A8.52,8.52,0,0,0,41,272.37a8.35,8.35,0,0,0,2.39,1.69,10.76,10.76,0,0,0,2.69.84,1,1,0,0,0,.29,0,.36.36,0,0,0,.21-.11l3.62-3.61s0-.05.06-.08l.06,0,.36-.36a.41.41,0,0,0,0-.58l-4.51-4.51a.41.41,0,0,0-.58,0l-.36.36a.41.41,0,0,0,0,.58l3.86,3.86L46,273.52a7.36,7.36,0,0,1-2.06-.64,6.94,6.94,0,0,1-2-1.43,7.28,7.28,0,0,1-1.91-3.34,7.53,7.53,0,0,1-.25-1.88,7.4,7.4,0,0,1,.24-1.88A7.45,7.45,0,0,1,42,261a7.34,7.34,0,0,1,1.55-1.17,7.74,7.74,0,0,1,1.76-.74,7.89,7.89,0,0,1,1.88-.26,7.52,7.52,0,0,1,1.89.23,7.87,7.87,0,0,1,1.8.72,7.42,7.42,0,0,1,3,3.14,8.51,8.51,0,0,1,.68,2.16l-1.18,1.18A.4.4,0,0,0,53.33,266.8Z" transform="translate(-38.47 -40)"/><path class="cls-1" d="M100.12,315.87a8.06,8.06,0,0,0,.84-2.05,8.29,8.29,0,0,0,0-4.31,8.93,8.93,0,0,0-.84-2.06,8.51,8.51,0,0,0-1.4-1.85l-5-5a.38.38,0,0,0-.54,0l-.48.48a.4.4,0,0,0,0,.54l.82.82-10,10-.82-.82a.4.4,0,0,0-.54,0l-.48.48a.4.4,0,0,0,0,.54l4.93,4.93A8.83,8.83,0,0,0,88.44,319a8.09,8.09,0,0,0,2,.85,8.44,8.44,0,0,0,4.35,0,8.25,8.25,0,0,0,2-.83,8.35,8.35,0,0,0,1.83-1.39A8.93,8.93,0,0,0,100.12,315.87Zm-3.89,1.92a7,7,0,0,1-1.71.7,6.87,6.87,0,0,1-1.81.24,7,7,0,0,1-1.82-.24,7.34,7.34,0,0,1-1.73-.71,7,7,0,0,1-1.55-1.19l-3.09-3.08,10-10.05,3.1,3.1a7.35,7.35,0,0,1,1.59,2.35,7,7,0,0,1,.56,2.66,6.93,6.93,0,0,1-.49,2.67,6.86,6.86,0,0,1-1.59,2.39A7,7,0,0,1,96.23,317.79Z" transform="translate(-38.47 -40)"/><path class="cls-1" d="M121,336.75a8.47,8.47,0,0,0,.85-2.05,8.24,8.24,0,0,0,.28-2.15,7.91,7.91,0,0,0-.28-2.16,8.93,8.93,0,0,0-.84-2.06,8.7,8.7,0,0,0-1.39-1.85l-5-5a.37.37,0,0,0-.53,0l-.48.48a.37.37,0,0,0,0,.53l.81.82-10,10-.82-.81a.38.38,0,0,0-.54,0l-.47.47a.38.38,0,0,0,0,.54l4.92,4.93a9.15,9.15,0,0,0,1.84,1.42,9,9,0,0,0,2.06.85,8.7,8.7,0,0,0,4.34,0,8.89,8.89,0,0,0,2.06-.83,8.35,8.35,0,0,0,1.82-1.4A8.11,8.11,0,0,0,121,336.75Zm-3.89,1.92a7.57,7.57,0,0,1-1.7.71,7.44,7.44,0,0,1-1.82.23,7.22,7.22,0,0,1-5.1-2.14l-3.09-3.08,10-10.05,3.1,3.11a7.15,7.15,0,0,1,1.59,2.34,7.3,7.3,0,0,1,.57,2.66,7.05,7.05,0,0,1-.49,2.67,6.89,6.89,0,0,1-1.59,2.4A7,7,0,0,1,117.11,338.67Z" transform="translate(-38.47 -40)"/><path class="cls-1" d="M151.48,358.62l-2.14-2.14a.38.38,0,0,0-.54,0l-.47.48a.38.38,0,0,0,0,.54l.46.46L140.52,360l2-8.36.47.47a.38.38,0,0,0,.54,0l.48-.47a.38.38,0,0,0,0-.54L141.85,349a.38.38,0,0,0-.54,0l-.47.48a.38.38,0,0,0,0,.54l.6.6-2.35,9.95-3.92,3.92-.58-.58a.38.38,0,0,0-.54,0l-.48.48a.4.4,0,0,0,0,.54l2.14,2.13a.38.38,0,0,0,.54,0l.48-.48a.4.4,0,0,0,0-.54l-.63-.62,4-4,9.72-2.45.65.65a.38.38,0,0,0,.54,0l.48-.47A.38.38,0,0,0,151.48,358.62Z" transform="translate(-38.47 -40)"/><path class="cls-1" d="M128.85,358.16l-.7-.7L134,343.21l.27.27a.38.38,0,0,0,.54,0l.48-.47a.38.38,0,0,0,0-.54l-2.14-2.14a.38.38,0,0,0-.54,0l-.47.48a.38.38,0,0,0,0,.54l.29.29-14.28,5.86-.69-.69a.38.38,0,0,0-.54,0l-.47.48a.38.38,0,0,0,0,.54l2.13,2.13a.38.38,0,0,0,.54,0l.48-.47a.38.38,0,0,0,0-.54l-.35-.35,3.89-1.63,5.51,5.51-1.63,3.89-.35-.35a.38.38,0,0,0-.54,0l-.47.48a.38.38,0,0,0,0,.54l2.13,2.13a.38.38,0,0,0,.54,0l.48-.47A.38.38,0,0,0,128.85,358.16Zm.44-7.11-4.68-4.67,8-3.36Z" transform="translate(-38.47 -40)"/><path class="cls-1" d="M179.79,409.1l-.69-.69L185,394.16l.27.27a.38.38,0,0,0,.54,0l.48-.47a.38.38,0,0,0,0-.54l-2.14-2.14a.38.38,0,0,0-.54,0l-.47.48a.38.38,0,0,0,0,.54l.29.29-14.28,5.86-.69-.69a.38.38,0,0,0-.54,0l-.47.48a.38.38,0,0,0,0,.54l2.13,2.13a.38.38,0,0,0,.54,0l.48-.47a.38.38,0,0,0,0-.54l-.35-.35,3.88-1.63,5.51,5.51L178,407.32l-.35-.35a.38.38,0,0,0-.54,0l-.48.47a.38.38,0,0,0,0,.54l2.14,2.14a.38.38,0,0,0,.54,0l.47-.48A.38.38,0,0,0,179.79,409.1Zm.45-7.1-4.68-4.68,8.05-3.35Z" transform="translate(-38.47 -40)"/><path class="cls-1" d="M208.17,437.48l-.59-.6,1.31-10.78,7.86-.17.88.87a.38.38,0,0,0,.54,0l.47-.48a.38.38,0,0,0,0-.54l-2.13-2.13a.38.38,0,0,0-.54,0l-.48.47a.38.38,0,0,0-.07.43l-11.95.36,6.13-6.14.6.6a.38.38,0,0,0,.54,0l.47-.48a.38.38,0,0,0,0-.54l-2.13-2.13a.38.38,0,0,0-.54,0l-.48.47a.38.38,0,0,0,0,.54l.61.61L198.6,427.91l-.61-.61a.38.38,0,0,0-.54,0l-.47.48a.38.38,0,0,0,0,.54l2.13,2.13a.38.38,0,0,0,.54,0l.48-.47a.38.38,0,0,0,0-.54l-.6-.6,2.56-2.56,5.51-.14-1.23,9.53-.33-.33a.4.4,0,0,0-.54,0l-.48.48a.38.38,0,0,0,0,.54l2.13,2.14a.4.4,0,0,0,.54,0l.48-.48A.38.38,0,0,0,208.17,437.48Z" transform="translate(-38.47 -40)"/><path class="cls-1" d="M223.29,450.44a.38.38,0,0,0,0-.54l-.47-.48a.38.38,0,0,0-.54,0l-1.08,1.08L214.7,444l4.79-4.79,5,5-.56.56a.38.38,0,0,0,0,.54l.47.48a.4.4,0,0,0,.54,0l2.17-2.17a.38.38,0,0,0,0-.54l-.48-.47a.38.38,0,0,0-.54,0l-.59.59-5-5,4.25-4.24,6.39,6.39-1.08,1.08a.38.38,0,0,0,0,.54l.48.48a.38.38,0,0,0,.54,0l1.79-1.79a.39.39,0,0,0,0-.62l-8.93-8.93a.38.38,0,0,0-.54,0l-.48.47a.38.38,0,0,0,0,.54l.82.82-10,10.05-.82-.82a.38.38,0,0,0-.54,0l-.48.47a.38.38,0,0,0,0,.54l9,9a.37.37,0,0,0,.6,0Z" transform="translate(-38.47 -40)"/><path class="cls-1" d="M245.69,453.46a.56.56,0,0,0,.12-.32.45.45,0,0,0-.16-.3l-8.5-8.51a.43.43,0,0,0-.3-.13.41.41,0,0,0-.29.13l-1.8,1.81a.38.38,0,0,0,0,.54l.47.47a.38.38,0,0,0,.54,0l1.16-1.15,3.08,3.08L229.89,459.2l-.89-.89a.38.38,0,0,0-.54,0l-.48.47a.39.39,0,0,0,0,.54L230.7,462a.38.38,0,0,0,.54,0l.47-.48a.38.38,0,0,0,0-.54l-.89-.89L240.94,450l3.08,3.08-1.15,1.16a.38.38,0,0,0,0,.54l.47.47a.38.38,0,0,0,.54,0Z" transform="translate(-38.47 -40)"/><path class="cls-1" d="M193.08,422.39l-.76-.76,2.6-6.07a5.05,5.05,0,0,0,5.32-.93,5.14,5.14,0,0,0,1-5.58,5.29,5.29,0,0,0-1.17-1.78l-5.55-5.55a.38.38,0,0,0-.54,0l-.38.39a.38.38,0,0,0,0,.54l.57.57-10.13,10.14-.58-.58a.38.38,0,0,0-.54,0l-.47.48a.38.38,0,0,0,0,.54l2.13,2.13a.38.38,0,0,0,.54,0l.48-.47a.38.38,0,0,0,0-.54l-.63-.63,4.1-4.1,4.66,4.67-2.44,5.75-.35-.35a.38.38,0,0,0-.54,0l-.48.47a.38.38,0,0,0,0,.54l2.14,2.14a.38.38,0,0,0,.54,0l.47-.48A.38.38,0,0,0,193.08,422.39Zm1.27-8.82c-.22-.19-.43-.4-.65-.61l-.13-.13L190,409.26l5.11-5.1,4,4a3.83,3.83,0,0,1,.89,1.35,3.9,3.9,0,0,1-.72,4.18A3.61,3.61,0,0,1,194.35,413.57Z" transform="translate(-38.47 -40)"/><path class="cls-1" d="M164.89,394.18l-.62-.62,9.12-11,1.27,1.27a.38.38,0,0,0,.54,0l.48-.48a.38.38,0,0,0,0-.54l-2.14-2.13a.53.53,0,0,0-.53-.06l-13.75,5.26,5.27-13.75a.55.55,0,0,0-.06-.53l-2.14-2.13a.38.38,0,0,0-.54,0l-.47.47a.38.38,0,0,0,0,.54l1.27,1.27-11,9.13-.62-.63a.38.38,0,0,0-.54,0l-.48.48a.4.4,0,0,0,0,.54l2.14,2.13a.38.38,0,0,0,.54,0l.48-.47a.4.4,0,0,0,0-.54l-.58-.58,10.1-8.41-2.53,6.66-2.47,6.53a.63.63,0,0,0,.16.79.65.65,0,0,0,.79.16l6.52-2.48,6.66-2.53-8.41,10.11-.57-.58a.38.38,0,0,0-.54,0l-.48.48a.37.37,0,0,0,0,.53l2.14,2.14a.38.38,0,0,0,.54,0l.47-.48A.38.38,0,0,0,164.89,394.18Z" transform="translate(-38.47 -40)"/></svg>