<svg id="圖層_1" data-name="圖層 1" xmlns="http://www.w3.org/2000/svg" viewBox="0 0 414.72 123.44"><defs><style>.cls-1{fill:#ee3f4d;}</style></defs><title>良辰吉市LOGO1</title><path class="cls-1" d="M345.43,211.87a5.21,5.21,0,0,0,5.21-5.21V204a5.22,5.22,0,0,0-5.21-5.22h-29v-6.69a4.17,4.17,0,0,0-4.17-4.16H292.92a4.16,4.16,0,0,0-4.17,4.16v6.69H260.12a5.22,5.22,0,0,0-5.21,5.22v2.66a5.21,5.21,0,0,0,5.21,5.21h28.63v5.86h-22a5.21,5.21,0,0,0-5.21,5.21v2.37a5.2,5.2,0,0,0,3.09,4.75h-4.77a4.17,4.17,0,0,0-4.17,4.17v34.7a4.17,4.17,0,0,0,4.17,4.17h85.85a4.17,4.17,0,0,0,4.17-4.17V240.55a4.17,4.17,0,0,0-4.17-4.17H278v-2.15a4.16,4.16,0,0,0-2.3-3.71h63.12a5.21,5.21,0,0,0,5.21-5.21v-2.37a5.21,5.21,0,0,0-5.21-5.21H316.46v-5.86Zm-17.76,37.31V260.3H278V249.18Z" transform="translate(-43.28 -187.93)"/><path class="cls-1" d="M452.79,211.87a5.21,5.21,0,0,0,5.21-5.21V204a5.22,5.22,0,0,0-5.21-5.22H424v-6.69a4.17,4.17,0,0,0-4.17-4.16H400.45a4.17,4.17,0,0,0-4.17,4.16v6.69h-28.8a5.22,5.22,0,0,0-5.21,5.22v2.66a5.21,5.21,0,0,0,5.21,5.21h29.21v11.61h-11.4v-1.59a4.17,4.17,0,0,0-4.17-4.16h-13.9a4.17,4.17,0,0,0-4.17,4.16v47a4.17,4.17,0,0,0,4.17,4.17h13.9a4.17,4.17,0,0,0,4.17-4.17V240h11.4v29a4.17,4.17,0,0,0,4.17,4.17h18.55a4.17,4.17,0,0,0,4.17-4.17V240H435V252H433.6a4.16,4.16,0,0,0-4.16,4.16v12.73a4.17,4.17,0,0,0,4.16,4.17h19.46a4.17,4.17,0,0,0,4.17-4.17V227.65a4.17,4.17,0,0,0-4.17-4.17H423.58V211.87Z" transform="translate(-43.28 -187.93)"/><path class="cls-1" d="M238.07,206.76a5.21,5.21,0,0,0,5.21-5.21v-2.66a5.21,5.21,0,0,0-5.21-5.21H171.33v-1.59a4.17,4.17,0,0,0-4.17-4.16h-13.9a4.17,4.17,0,0,0-4.17,4.16v76.84a4.17,4.17,0,0,0,4.17,4.17h13.9a4.17,4.17,0,0,0,4.17-4.17V243.7h5.85v25.23a4.17,4.17,0,0,0,4.17,4.17h17.22a4.17,4.17,0,0,0,4.17-4.17V256.2a4.17,4.17,0,0,0-4.17-4.16h-9.25V243.7h7.26l34,28.21a5.57,5.57,0,0,0,3.44,1.19h3.65a5.57,5.57,0,0,0,5.57-5.58v-2.47a5.58,5.58,0,0,0-2.13-4.39l-5.38-4.22h4.12a3.4,3.4,0,0,0,3.39-3.4v-.52a3.4,3.4,0,0,0-3.39-3.4H226.44l-6.1-4.78a5.25,5.25,0,0,0-1.06-.64h18.79a5.22,5.22,0,0,0,5.21-5.22v-2.66a5.21,5.21,0,0,0-5.21-5.21H171.33v-5.86h60.89a5.21,5.21,0,0,0,5.21-5.21v-1.71a5.21,5.21,0,0,0-5.21-5.21H171.33v-5.86Z" transform="translate(-43.28 -187.93)"/><path class="cls-1" d="M133.3,243.7a4.17,4.17,0,0,0,4.17-4.17V203.24a4.17,4.17,0,0,0-4.17-4.17H104.7v-7a4.17,4.17,0,0,0-4.17-4.16H81.16A4.16,4.16,0,0,0,77,192.09v7H65.51v-.68a4.17,4.17,0,0,0-4.17-4.17H47.44a4.17,4.17,0,0,0-4.16,4.17v70.54a4.17,4.17,0,0,0,4.16,4.17h35.3a4.17,4.17,0,0,0,4.17-4.17V256.2A4.16,4.16,0,0,0,82.74,252H65.51V243.7H81.6l35,28.21A5.57,5.57,0,0,0,120,273.1h11.88a5.58,5.58,0,0,0,5.58-5.58v-2.47a5.59,5.59,0,0,0-2.14-4.39L130,256.44h4.12a3.4,3.4,0,0,0,3.4-3.4v-.52a3.4,3.4,0,0,0-3.4-3.4H120.63s-6.8-5.25-7.17-5.42Zm-18.07-31.83v5.86H65.51v-5.86ZM65.51,225.05h49.72v5.85H65.51Z" transform="translate(-43.28 -187.93)"/><path class="cls-1" d="M140.91,303.44a7.88,7.88,0,0,1,1.08-4,7.69,7.69,0,0,1,1.24-1.61,7.44,7.44,0,0,1,1.61-1.24,7.83,7.83,0,0,1,1.9-.81,7.68,7.68,0,0,1,2.11-.28,8,8,0,0,1,5.61,2.33,8.12,8.12,0,0,1,1.24,1.61,8.21,8.21,0,0,1,.8,1.9,7.92,7.92,0,0,1,.29,2.12,7.79,7.79,0,0,1-.29,2.11,8.32,8.32,0,0,1-.8,1.89,8.06,8.06,0,0,1-1.24,1.6,8.42,8.42,0,0,1-1.61,1.24,8,8,0,0,1-8,0,8.06,8.06,0,0,1-1.6-1.24,7.69,7.69,0,0,1-1.24-1.61,7.9,7.9,0,0,1-.8-1.89A7.78,7.78,0,0,1,140.91,303.44Zm1.22,0a6.59,6.59,0,0,0,.52,2.62,6.79,6.79,0,0,0,1.44,2.13,6.72,6.72,0,0,0,2.14,1.44,6.73,6.73,0,0,0,4.4.29,7,7,0,0,0,1.61-.68,6.87,6.87,0,0,0,1.36-1.05,6.59,6.59,0,0,0,1.05-1.36,6.7,6.7,0,0,0,.68-1.6,6.73,6.73,0,0,0-.29-4.4,7,7,0,0,0-1.45-2.13,6.79,6.79,0,0,0-2.13-1.44,6.35,6.35,0,0,0-2.61-.53,6.66,6.66,0,0,0-1.79.24,6.93,6.93,0,0,0-1.61.67,7,7,0,0,0-1.36,1.06,7.36,7.36,0,0,0-1.05,1.36,6.74,6.74,0,0,0-.91,3.38Z" transform="translate(-43.28 -187.93)"/><path class="cls-1" d="M161.68,303.44a7.78,7.78,0,0,1,.28-2.11,8.21,8.21,0,0,1,.8-1.9,8,8,0,0,1,1.24-1.61,7.44,7.44,0,0,1,1.61-1.24,7.84,7.84,0,0,1,8,0,7.44,7.44,0,0,1,1.61,1.24,7.77,7.77,0,0,1,1.24,1.61,8.21,8.21,0,0,1,.8,1.9,7.92,7.92,0,0,1,.29,2.12,7.79,7.79,0,0,1-.29,2.11,8.32,8.32,0,0,1-.8,1.89,7.71,7.71,0,0,1-1.24,1.6,8.12,8.12,0,0,1-1.61,1.24,7.71,7.71,0,0,1-1.89.79,8.13,8.13,0,0,1-4.23,0,7.71,7.71,0,0,1-1.89-.79,8.12,8.12,0,0,1-1.61-1.24,8,8,0,0,1-1.24-1.61,8.32,8.32,0,0,1-.8-1.89A7.78,7.78,0,0,1,161.68,303.44Zm1.22,0a6.6,6.6,0,0,0,.53,2.62,6.79,6.79,0,0,0,1.44,2.13,6.68,6.68,0,0,0,2.13,1.44,6.76,6.76,0,0,0,4.41.29,6.88,6.88,0,0,0,1.6-.68,6.73,6.73,0,0,0,2.41-2.41,6.7,6.7,0,0,0,.68-1.6,6.73,6.73,0,0,0-.29-4.4,7.15,7.15,0,0,0-1.44-2.13,6.72,6.72,0,0,0-2.14-1.44,6.33,6.33,0,0,0-2.6-.53,6.61,6.61,0,0,0-1.79.24,6.5,6.5,0,0,0-3,1.73,6.59,6.59,0,0,0-1.05,1.36,6.62,6.62,0,0,0-.92,3.38Z" transform="translate(-43.28 -187.93)"/><path class="cls-1" d="M135.18,299.9h.47a.36.36,0,0,0,.36-.36V297.6a.61.61,0,0,0-.26-.43,6.24,6.24,0,0,0-.55-.39c-.21-.13-.43-.25-.66-.37s-.43-.22-.6-.29a7.62,7.62,0,0,0-3.06-.63,7.73,7.73,0,0,0-2.11.29,7.83,7.83,0,0,0-1.9.81,8,8,0,0,0-3.63,4.74,8.09,8.09,0,0,0,0,4.22,8.11,8.11,0,0,0,.79,1.89,7.44,7.44,0,0,0,1.24,1.61,7.86,7.86,0,0,0,3.49,2,7.73,7.73,0,0,0,2.11.28,7.51,7.51,0,0,0,2.62-.45,9.75,9.75,0,0,0,2.26-1.19.83.83,0,0,0,.19-.18.31.31,0,0,0,.07-.2v-5.25a.36.36,0,0,0-.37-.37h-5.79a.36.36,0,0,0-.36.37v.46a.37.37,0,0,0,.36.37h5v4a6.88,6.88,0,0,1-1.73.91,6.27,6.27,0,0,1-2.2.37,6.52,6.52,0,0,1-1.77-.24,6.88,6.88,0,0,1-1.6-.68,6.65,6.65,0,0,1-1.37-1.05,6.27,6.27,0,0,1-1-1.35,7,7,0,0,1-.69-1.61,6.61,6.61,0,0,1-.24-1.79,6.83,6.83,0,0,1,.23-1.75,7.49,7.49,0,0,1,.66-1.6,7,7,0,0,1,1-1.37,6.64,6.64,0,0,1,1.36-1.06,6.9,6.9,0,0,1,1.62-.7,6.45,6.45,0,0,1,1.82-.25,6.18,6.18,0,0,1,2.1.36,7.5,7.5,0,0,1,1.82.94v1.52A.37.37,0,0,0,135.18,299.9Z" transform="translate(-43.28 -187.93)"/><path class="cls-1" d="M196.67,301.36a7.77,7.77,0,0,0-.77-1.85,7.53,7.53,0,0,0-2.76-2.77,8.07,8.07,0,0,0-1.86-.79,8.42,8.42,0,0,0-2.08-.29h-6.4a.35.35,0,0,0-.34.35v.61a.35.35,0,0,0,.34.35h1v12.88h-1a.35.35,0,0,0-.34.35v.61a.35.35,0,0,0,.34.35h6.32a8,8,0,0,0,2.09-.27,7.69,7.69,0,0,0,1.86-.78,7.4,7.4,0,0,0,1.58-1.2,7.69,7.69,0,0,0,1.23-1.56,7.89,7.89,0,0,0,.79-1.86,8,8,0,0,0,0-4.13Zm-1.26,3.73a6.44,6.44,0,0,1-.65,1.55,6,6,0,0,1-1,1.31,6.45,6.45,0,0,1-1.31,1,7,7,0,0,1-1.57.66,6.39,6.39,0,0,1-1.76.23h-4V297h4a6.7,6.7,0,0,1,2.53.48,6.49,6.49,0,0,1,2.06,1.34,6.41,6.41,0,0,1,1.4,2,6.2,6.2,0,0,1,.52,2.56A6.47,6.47,0,0,1,195.41,305.09Z" transform="translate(-43.28 -187.93)"/><path class="cls-1" d="M223.46,301.36a7.73,7.73,0,0,0-2-3.42,7,7,0,0,0-1.56-1.2,8.07,8.07,0,0,0-1.86-.79,8.35,8.35,0,0,0-2.08-.29h-6.4a.35.35,0,0,0-.34.35v.61a.35.35,0,0,0,.34.35h1v12.88h-1a.35.35,0,0,0-.35.35v.61a.35.35,0,0,0,.35.35h6.32a7.77,7.77,0,0,0,4-1.05,7.66,7.66,0,0,0,1.58-1.2,8,8,0,0,0,1.22-1.56,7.49,7.49,0,0,0,.79-1.86,7.76,7.76,0,0,0,.28-2.06A7.44,7.44,0,0,0,223.46,301.36Zm-1.26,3.73a6.41,6.41,0,0,1-.64,1.55,6.37,6.37,0,0,1-2.33,2.32,6.85,6.85,0,0,1-1.57.66,6.39,6.39,0,0,1-1.76.23h-4V297h4a6.66,6.66,0,0,1,2.53.48,6.42,6.42,0,0,1,2.07,1.34,6.57,6.57,0,0,1,1.4,2,6.36,6.36,0,0,1,.51,2.56A6.08,6.08,0,0,1,222.2,305.09Z" transform="translate(-43.28 -187.93)"/><path class="cls-1" d="M257,295.84H254.3a.35.35,0,0,0-.34.35v.61a.34.34,0,0,0,.34.34h.6l-4,6.63-4.1-6.63h.61a.35.35,0,0,0,.35-.34v-.61a.35.35,0,0,0-.35-.35h-2.74a.35.35,0,0,0-.34.35v.61a.34.34,0,0,0,.34.34h.78l4.87,7.89v5h-.74a.35.35,0,0,0-.35.35V311a.35.35,0,0,0,.35.34h2.74a.34.34,0,0,0,.34-.34v-.61a.35.35,0,0,0-.34-.35h-.8V305l4.66-7.81H257a.35.35,0,0,0,.35-.34v-.61A.35.35,0,0,0,257,295.84Z" transform="translate(-43.28 -187.93)"/><path class="cls-1" d="M242.23,310.06h-.89L236,297.14h.34a.35.35,0,0,0,.35-.34v-.61a.35.35,0,0,0-.35-.35h-2.74a.35.35,0,0,0-.34.35v.61a.34.34,0,0,0,.34.34H234l-5.39,12.92h-.88a.35.35,0,0,0-.35.35V311a.35.35,0,0,0,.35.34h2.74a.34.34,0,0,0,.34-.34v-.61a.35.35,0,0,0-.34-.35H230l1.45-3.53h7.07l1.45,3.53h-.45a.35.35,0,0,0-.35.35V311a.35.35,0,0,0,.35.34h2.74a.34.34,0,0,0,.34-.34v-.61A.35.35,0,0,0,242.23,310.06ZM238,305.22h-6l3-7.32Z" transform="translate(-43.28 -187.93)"/><path class="cls-1" d="M307.59,310.06h-.89l-5.36-12.92h.35a.34.34,0,0,0,.34-.34v-.61a.35.35,0,0,0-.34-.35H299a.35.35,0,0,0-.35.35v.61a.35.35,0,0,0,.35.34h.37l-5.39,12.92H293a.35.35,0,0,0-.34.35V311a.34.34,0,0,0,.34.34h2.74a.35.35,0,0,0,.35-.34v-.61a.35.35,0,0,0-.35-.35h-.45c.09-.2,1.45-3.53,1.45-3.53h7.07l1.45,3.53h-.45a.35.35,0,0,0-.34.35V311a.34.34,0,0,0,.34.34h2.74a.35.35,0,0,0,.35-.34v-.61A.35.35,0,0,0,307.59,310.06Zm-4.27-4.84h-6l3-7.32Z" transform="translate(-43.28 -187.93)"/><path class="cls-1" d="M344,310.06h-.76l-6.08-7.76,4.93-5.16h1.12a.34.34,0,0,0,.35-.34v-.61a.35.35,0,0,0-.35-.35h-2.73a.35.35,0,0,0-.35.35v.61a.33.33,0,0,0,.23.32l-7.44,7.9v-7.88h.76a.35.35,0,0,0,.35-.34v-.61a.35.35,0,0,0-.35-.35h-2.74a.35.35,0,0,0-.35.35v.61a.35.35,0,0,0,.35.34h.78v12.92h-.78a.35.35,0,0,0-.35.35V311a.35.35,0,0,0,.35.34h2.74A.35.35,0,0,0,334,311v-.61a.35.35,0,0,0-.35-.35h-.76v-3.28l3.44-3.63,5.32,6.91h-.42a.35.35,0,0,0-.35.35V311a.35.35,0,0,0,.35.34H344a.35.35,0,0,0,.35-.34v-.61A.35.35,0,0,0,344,310.06Z" transform="translate(-43.28 -187.93)"/><path class="cls-1" d="M362,308.67a.34.34,0,0,0-.34-.34h-.61a.34.34,0,0,0-.35.34v1.39h-8.33v-6.14h6.42v.72a.35.35,0,0,0,.35.34h.61a.35.35,0,0,0,.35-.34v-2.78a.35.35,0,0,0-.35-.35h-.61a.35.35,0,0,0-.35.35v.76h-6.42v-5.45h8.21v1.39a.35.35,0,0,0,.34.35h.61a.35.35,0,0,0,.35-.35v-2.3a.35.35,0,0,0-.4-.39H350a.35.35,0,0,0-.35.35v.61a.35.35,0,0,0,.35.34h1.05v12.89H350a.35.35,0,0,0-.35.35V311a.35.35,0,0,0,.35.34h11.6A.33.33,0,0,0,362,311Z" transform="translate(-43.28 -187.93)"/><path class="cls-1" d="M378.32,296.25a.49.49,0,0,0-.13-.29.46.46,0,0,0-.29-.09H367a.35.35,0,0,0-.27.1.37.37,0,0,0-.1.28v2.31a.35.35,0,0,0,.34.35h.62a.35.35,0,0,0,.34-.35v-1.48h3.95v13h-1.14a.35.35,0,0,0-.34.35V311a.34.34,0,0,0,.34.34h3.48a.35.35,0,0,0,.35-.34v-.61a.35.35,0,0,0-.35-.35h-1.14v-13H377v1.48a.35.35,0,0,0,.35.35H378a.35.35,0,0,0,.35-.35Z" transform="translate(-43.28 -187.93)"/><path class="cls-1" d="M324.64,310.06h-1l-2.23-5.56a4.38,4.38,0,0,0-.12-8.23,4.77,4.77,0,0,0-1.89-.4h-7.12a.35.35,0,0,0-.34.35v.49a.35.35,0,0,0,.34.35h.74v13h-.74a.35.35,0,0,0-.34.35V311a.34.34,0,0,0,.34.34h2.74a.35.35,0,0,0,.35-.34v-.61a.35.35,0,0,0-.35-.35h-.8V304.8h6l2.12,5.26h-.44a.35.35,0,0,0-.35.35V311a.34.34,0,0,0,.35.34h2.73A.34.34,0,0,0,325,311v-.61A.35.35,0,0,0,324.64,310.06Zm-4.85-6.47c-.26,0-.53,0-.8,0h-4.74v-6.55h5.15a3.67,3.67,0,0,1,1.44.29,3.58,3.58,0,0,1,2.22,3.15A3.29,3.29,0,0,1,319.79,303.59Z" transform="translate(-43.28 -187.93)"/><path class="cls-1" d="M288.46,310.05h-.8l-1.21-12.92h1.63a.35.35,0,0,0,.35-.34v-.61a.35.35,0,0,0-.35-.35h-2.74c-.22,0-.35.25-.38.3l-5.44,12.2-5.44-12.2c0-.05-.17-.3-.38-.3H271a.35.35,0,0,0-.35.35v.61a.35.35,0,0,0,.35.34h1.63l-1.21,12.92h-.8a.35.35,0,0,0-.35.35V311a.35.35,0,0,0,.35.34h2.74a.34.34,0,0,0,.34-.34v-.61a.35.35,0,0,0-.34-.35h-.74l1.08-11.88,2.65,5.9q1.29,2.88,2.6,5.77a.66.66,0,0,0,1.22,0q1.31-2.89,2.6-5.77l2.65-5.9,1.08,11.88h-.74a.35.35,0,0,0-.34.35V311a.34.34,0,0,0,.34.34h2.74a.35.35,0,0,0,.35-.34v-.61A.35.35,0,0,0,288.46,310.05Z" transform="translate(-43.28 -187.93)"/></svg>